<svg xmlns="http://www.w3.org/2000/svg" data-name="Layer 1" width="610" height="634" style=""><rect id="backgroundrect" width="100%" height="100%" x="0" y="0" fill="none" stroke="none"/><title>Vector File</title><g class="currentLayer" style=""><title>Layer 1</title><path d="M492.8535461425781,164.18990325927734 a1.809999942779541,1.809999942779541 0 0 1 -0.2900000214576721,-0.6000000238418579 a2.680000066757202,2.680000066757202 0 0 1 -0.3400000035762787,-0.5400000214576721 h0 a0.5,0.5 0 0 0 0,-0.12999999523162842 C492.4735412597656,163.32990264892578 492.6735534667969,163.7599105834961 492.8535461425781,164.18990325927734 z" id="svg_1" class="" transform=""/><path d="M529.4735412597656,135.09990692138672 c-0.9200000166893005,-1.2200000286102295 -1.7999999523162842,-2.430000066757202 -2.630000114440918,-3.559999942779541 Q528.1735534667969,133.2499008178711 529.4735412597656,135.09990692138672 z" id="svg_2" class="" transform=""/><path d="M575.6435241699219,263.0999069213867 a6.75,6.75 0 0 1 -0.24000000953674316,-4.190000057220459 c0.07000000774860382,1.1700000762939453 0.14000000059604645,2.3600001335144043 0.20000000298023224,3.5399999618530273 C575.6135559082031,262.6299057006836 575.6335754394531,262.8398971557617 575.6435241699219,263.0999069213867 z" id="svg_3" class="" transform=""/><path d="M570.1735534667969,330.3698959350586 c-0.12000000476837158,0.5099999904632568 -0.23000000417232513,1 -0.3500000238418579,1.5399999618530273 a1.4600000381469727,1.4600000381469727 0 0 1 -0.07000000774860382,0.1899999976158142 c-0.07000000774860382,0.23000000417232513 -0.15000000596046448,0.46000000834465027 -0.2199999988079071,0.690000057220459 s-0.17000001668930054,0.48000001907348633 -0.23000000417232513,0.7199999690055847 a18.18000030517578,18.18000030517578 0 0 0 -0.5600000023841858,2 a4.230000019073486,4.230000019073486 0 0 0 -0.3100000023841858,1.8899999856948853 a0.4300000071525574,0.4300000071525574 0 0 0 0,0.05000000447034836 c0,0.10000000149011612 0,0.21000000834465027 0,0.3100000023841858 c-0.14000000059604645,0.5 -0.25,1 -0.39000001549720764,1.5099999904632568 A23.850000381469727,23.850000381469727 0 0 1 570.1735534667969,330.3698959350586 z" id="svg_4" class="" transform=""/><path d="M223.17355346679688,61.619911193847656 c-2.380000114440918,2.259999990463257 -7.199999809265137,5.880000114440918 -9.260000228881836,5.329999923706055 h0 Q218.44357299804688,64.15990447998047 223.17355346679688,61.619911193847656 z" id="svg_5" class="" transform=""/><path d="M488.2435607910156,154.5499038696289 q-1.159999966621399,-2.369999885559082 -2.4000000953674316,-4.710000038146973 a8.170000076293945,8.170000076293945 0 0 1 1.5799999237060547,1.2799999713897705 A7.570000171661377,7.570000171661377 0 0 0 488.2435607910156,154.5499038696289 z" id="svg_6" class="" transform=""/><path d="M491.2235412597656,160.66991424560547 c-0.5400000214576721,-1.1700000762939453 -1.1100000143051147,-2.3399999141693115 -1.690000057220459,-3.509999990463257 c0.33000001311302185,0.6100000143051147 0.699999988079071,1.25 1.1299999952316284,1.940000057220459 C490.8435363769531,159.63990020751953 491.0335388183594,160.16991424560547 491.2235412597656,160.66991424560547 z" id="svg_7" class="" transform=""/><path d="M584.6335754394531,473.64989471435547 c-1.7200000286102295,3.4100000858306885 0.9500000476837158,5.440000057220459 3.25,6.829999923706055 c5,3 10.369999885559082,5.5 15.600000381469727,8.210000038146973 c6.769999980926514,3.4600000381469727 7.559999942779541,8.300000190734863 2.130000114440918,13.800000190734863 c-6.429999828338623,6.559999942779541 -14.390000343322754,6.829999923706055 -21.68000030517578,0.2199999988079071 c-8,-7.150000095367432 -15.579999923706055,-14.609999656677246 -23.40999984741211,-21.860000610351562 c-3.5199999809265137,-3.25 -7.260000228881836,-6.300000190734863 -14.869999885559082,-3.8499999046325684 c13.260000228881836,8.319999694824219 22.530000686645508,18.93000030517578 32.34000015258789,29.06999969482422 c2.25,2.2899999618530273 7.519999980926514,3.8400001525878906 5.179999828338623,8.3100004196167 s-7.099999904632568,5.340000152587891 -11.84000015258789,4.849999904632568 c-8,-0.8600000143051147 -15,-4.679999828338623 -21.850000381469727,-8.420000076293945 c-5.260000228881836,-2.819999933242798 -7.510000228881836,-1.600000023841858 -8.529999732971191,4.170000076293945 a47.189998626708984,47.189998626708984 0 0 1 -7.679999828338623,18.540000915527344 c-1.4500000476837158,2.180000066757202 -3.3600001335144043,4.630000114440918 -5.920000076293945,1.4900000095367432 c-8.850000381469727,-10.8100004196167 -23.170000076293945,-16.09000015258789 -29.739999771118164,-29.270000457763672 c-0.8600000143051147,-1.7599999904632568 -2.25,-3.25 -3.25,-4.909999847412109 c-4.539999961853027,-7.460000038146973 -6.619999885559082,-8 -13.59000015258789,-2.7100000381469727 c-8.550000190734863,6.559999942779541 -11.09000015258789,16.100000381469727 -12,26 c-1,10.609999656677246 -0.4300000071525574,21.280000686645508 0.4700000286102295,32 c2.1600000858306885,25.469999313354492 -3.7200000286102295,49.619998931884766 -14.180000305175781,72.76000213623047 c-1.0700000524520874,2.450000047683716 -2.5900001525878906,6.130000114440918 -5.710000038146973,5.230000019073486 c-3.3499999046325684,-1 -1.5299999713897705,-4.800000190734863 -1.2599999904632568,-7.349999904632568 c1.9200000762939453,-17.559999465942383 -4.909999847412109,-31.6200008392334 -18.1200008392334,-42.189998626708984 c-27.6299991607666,-22.219999313354492 -59.06999969482422,-23.5 -91.86000061035156,-14.760000228881836 c-17.5,4.639999866485596 -33.869998931884766,12.15999984741211 -50.18000030517578,19.729999542236328 C261.3935241699219,601.759880065918 235.17355346679688,603.2499313354492 209.17355346679688,594.3398971557617 a113.83999633789062,113.83999633789062 0 0 1 -14.619999885559082,-6 c-0.27000001072883606,-0.12000000476837158 -0.5400000214576721,-0.25999999046325684 -0.800000011920929,-0.39000001549720764 c-4.150000095367432,-2.059999942779541 -7.349999904632568,-1.2200000286102295 -11.140000343322754,0 c-32.310001373291016,10 -64.87000274658203,12.899999618530273 -97.87999725341797,3.4200000762939453 c-11.819999694824219,-3.4200000762939453 -22.90999984741211,-8.430000305175781 -33.7400016784668,-13.449999809265137 c0.4300000071525574,-2.559999942779541 1.590000033378601,-2.759999990463257 2.7100000381469727,-2.5999999046325684 c34.45000076293945,4.849999904632568 66.2300033569336,-3.9000000953674316 97.08999633789062,-18.290000915527344 c31.079999923706055,-14.550000190734863 62.52000045776367,-28.209999084472656 96.27999877929688,-35.459999084472656 c43.43000030517578,-9.319999694824219 86.77999877929688,-11.40999984741211 129.75,3 c0.690000057220459,0.27000001072883606 1.4900000095367432,0.17000001668930054 4,0.4300000071525574 C325.6335754394531,500.0999069213867 271.3535461425781,506.79991912841797 216.67355346679688,520.7199020385742 c2.7200000286102295,-5.170000076293945 7.349999904632568,-7.25 11.470000267028809,-9.8100004196167 c22.15999984741211,-13.859999656677246 45.29999923706055,-26 65.58999633789062,-42.7599983215332 c20.850000381469727,-17.170000076293945 37,-38.380001068115234 53.369998931884766,-59.43000030517578 c18,-23 38,-44.349998474121094 57.540000915527344,-66 c2.9200000762939453,-3.2100000381469727 3.450000047683716,-5.760000228881836 2.559999942779541,-9.649999618530273 a131.2100067138672,131.2100067138672 0 0 1 -3.4200000762939453,-36 c0.49000000953674316,-11.140000343322754 4.269999980926514,-20.719999313354492 13.0600004196167,-28.139999389648438 c9.34000015258789,-7.829999923706055 17.700000762939453,-5.930000305175781 21.209999084472656,5.760000228881836 c3.9000000953674316,12.899999618530273 6.789999961853027,26.059999465942383 10.149999618530273,39.119998931884766 c0.6200000047683716,2.3499999046325684 0.4700000286102295,5.930000305175781 3.5,6 a4.360000133514404,4.360000133514404 0 0 0 0.8300000429153442,-0.05000000447034836 c20.25,-70.80000305175781 3.4000000953674316,-165.25999450683594 -73.62000274658203,-225.92999267578125 c-72.3499984741211,-57 -152.5500030517578,-65.05999755859375 -235.35000610351562,-27 c-81.91999816894531,37.66999816894531 -121.8499984741211,108 -136.30999755859375,197 c-8.890000343322754,-10 -7.340000152587891,-18.1200008392334 -6.800000190734863,-25.610000610351562 c5.429999828338623,-73.56999969482422 37.83000183105469,-131.5399932861328 93.26000213623047,-175.19000244140625 c-0.4000000059604645,-0.9200000166893005 -0.8899999856948853,-1.840000033378601 0.690000057220459,-3 c6.409999847412109,-3.869999885559082 9.180000305175781,-6.599999904632568 8.539999961853027,-8.25 s0.7199999690055847,-3.759999990463257 2.240000009536743,-4.690000057220459 s9.319999694824219,-4.059999942779541 10.430000305175781,-5 c1.4600000381469727,-0.5400000214576721 3.740000009536743,-4 5.110000133514404,-5 c1,-1.4300000667572021 13.109999656677246,-3.8600001335144043 13.940000534057617,-5.470000267028809 c2.6700000762939453,-5.579999923706055 5.199999809265137,-4.650000095367432 4.930000305175781,-5.099999904632568 s12.130000114440918,-2.4700000286102295 14.260000228881836,-3.309999942779541 c3.369999885559082,-1.2100000381469727 3.9100000858306885,-2.4200000762939453 7.449999809265137,-4.679999828338623 s9.199999809265137,-1.7999999523162842 11.510000228881836,-2.75 s3.5299999713897705,1.4900000095367432 11.260000228881836,-3.2799999713897705 s18.239999771118164,-2.5900001525878906 21.93000030517578,-4.760000228881836 s10.25,-3.559999942779541 13.380000114440918,-3 s25.350000381469727,-2.190000057220459 28.440000534057617,-3.9000000953674316 a9.5,9.5 0 0 1 5.28000020980835,-0.7400000095367432 c0.5,-0.10000000149011612 11.050000190734863,1 11.050000190734863,1 l-1,0.4000000059604645 c2.75,0.5600000023841858 5.579999923706055,1.1100000143051147 6.510000228881836,0.9500000476837158 c1.5299999713897705,0.46000000834465027 6.539999961853027,-1.8899999856948853 8.520000457763672,-2.0899999141693115 c2.130000114440918,-0.9200000166893005 12.770000457763672,5.380000114440918 15,4.079999923706055 c7.470000267028809,-4.619999885559082 8.239999771118164,-1.590000033378601 8.510000228881836,-2.319999933242798 s10.690000534057617,6.269999980926514 13,6.889999866485596 c3.5,1.1200000047683716 5.090000152587891,0.08000000566244125 9.779999732971191,0.07000000774860382 s8,4.860000133514404 10.5600004196167,5.489999771118164 s0.8799999952316284,4.460000038146973 10.940000534057617,4.639999866485596 s14.940000534057617,10.779999732971191 19.6299991607666,11 s10.529999732971191,3.549999952316284 12.079999923706055,6.590000152587891 c0.690000057220459,1.3799999952316284 4.779999732971191,5 9.359999656677246,8.479999542236328 c4.159999847412109,2.5399999618530273 8.270000457763672,5.230000019073486 12.369999885559082,8.0600004196167 h0 a4.71999979019165,4.71999979019165 0 0 0 1.409999966621399,0.42000001668930054 a6.369999885559082,6.369999885559082 0 0 1 4.329999923706055,3.130000114440918 a2.3299999237060547,2.3299999237060547 0 0 1 0.21000000834465027,0.25999999046325684 a27.6299991607666,27.6299991607666 0 0 1 8.130000114440918,6.5 q3.9100000858306885,3 7.699999809265137,6.130000114440918 h0 c3.8299999237060547,2.190000057220459 8.3100004196167,4.920000076293945 11,9.239999771118164 c0.1899999976158142,0.2800000011920929 0.3500000238418579,0.550000011920929 0.5299999713897705,0.800000011920929 c2.140000104904175,1.9500000476837158 4.21999979019165,3.930000066757202 6.269999980926514,5.949999809265137 a4.800000190734863,4.800000190734863 0 0 1 1.8899999856948853,1.149999976158142 c1.6500000953674316,1.8600000143051147 7,3.930000066757202 9.130000114440918,7.519999980926514 s2.140000104904175,4.909999847412109 4.639999866485596,7.480000019073486 c1.5399999618530273,1.6800000667572021 11.789999961853027,8.940000534057617 11.350000381469727,9.229999542236328 s2.25,0.5600000023841858 2.2100000381469727,6.75 c0,1.7999999523162842 9.829999923706055,9.300000190734863 10.119999885559082,11 c0.7899999618530273,1.5299999713897705 1.3200000524520874,5.610000133514404 2.390000104904175,6.739999771118164 c0.5799999833106995,1.3600000143051147 6.199999809265137,7.579999923706055 7.179999828338623,9.100000381469727 s1.25,4 0,5.190000057220459 a1.5399999618530273,1.5399999618530273 0 0 0 -0.46000000834465027,1.1200000047683716 a8.170000076293945,8.170000076293945 0 0 0 -1.5799999237060547,-1.2799999713897705 q1.25,2.3399999141693115 2.4000000953674316,4.710000038146973 a7.570000171661377,7.570000171661377 0 0 1 -0.8199999928474426,-3.430000066757202 a6.360000133514404,6.360000133514404 0 0 1 0.7199999690055847,1 c0.5400000214576721,1 1.5399999618530273,4.199999809265137 2.5199999809265137,7 c-0.4300000071525574,-0.690000057220459 -0.800000011920929,-1.3300000429153442 -1.1299999952316284,-1.940000057220459 c0.5799999833106995,1.1700000762939453 1.149999976158142,2.3399999141693115 1.690000057220459,3.509999990463257 c-0.1899999976158142,-0.5 -0.3800000250339508,-1 -0.5600000023841858,-1.5699999332427979 q0.5699999928474426,1 1.2899999618530273,2.069999933242798 a2.2200000286102295,2.2200000286102295 0 0 1 0.3100000023841858,1.7400000095367432 a0.5,0.5 0 0 1 0,0.12999999523162842 h0 a2.680000066757202,2.680000066757202 0 0 0 0.3400000035762787,0.5400000214576721 a1.809999942779541,1.809999942779541 0 0 0 0.2900000214576721,0.6000000238418579 c1.100000023841858,1.6800000667572021 4.760000228881836,4.309999942779541 5.800000190734863,5.730000019073486 c1.8600000143051147,1.3799999952316284 1.7699999809265137,13.75 4,15 c7.75,4.139999866485596 5.519999980926514,6.329999923706055 6.289999961853027,6.199999809265137 s-0.06000000238418579,12.399999618530273 0.550000011920929,14.690000534057617 c0.7899999618530273,3.5799999237060547 2.5,4.449999809265137 4.860000133514404,8.5 s-0.1599999964237213,9.390000343322754 0.5699999928474426,11.880000114440918 s-3.430000066757202,3 1.4600000381469727,11.789999961853027 s-1.8199999332427979,18.329999923706055 0.36000001430511475,22.510000228881836 s2.2100000381469727,10.880000114440918 0.36000001430511475,13.739999771118164 c-0.550000011920929,0.8500000238418579 -0.8199999928474426,4.880000114440918 -1.25,8.710000038146973 c0,0.8300000429153442 -0.09000000357627869,1.6600000858306885 -0.12000000476837158,2.4800000190734863 l0.09000000357627869,-0.6600000262260437 c2.390000104904175,-0.5400000214576721 1,11.690000534057617 -1.1200000047683716,13.59000015258789 h0 c-0.18000000715255737,1.600000023841858 -0.36000001430511475,3.180000066757202 -0.5400000214576721,4.760000228881836 a6.119999885559082,6.119999885559082 0 0 1 -0.64000004529953,5 v0 c-0.46000000834465027,3.2899999618530273 -1,6.599999904632568 -1.5399999618530273,9.920000076293945 l7.75,1.2999999523162842 c0.5699999928474426,-3.299999952316284 1.1100000143051147,-6.690000057220459 1.600000023841858,-10.199999809265137 c0.6500000357627869,-4.699999809265137 1.1700000762939453,-9.40999984741211 1.600000023841858,-14.140000343322754 a200.10000610351562,200.10000610351562 0 0 0 -0.3400000035762787,-54.08000183105469 c-4,-37.16999816894531 -16.760000228881836,-73.5999984741211 -38.7400016784668,-110.93000030517578 a235.63999938964844,235.63999938964844 0 0 0 -32.790000915527344,-43.189998626708984 l-54.599998474121094,-42.15999984741211 c0.8600000143051147,-0.36000001430511475 2.8299999237060547,0.07000000774860382 4.909999847412109,0.6100000143051147 l-1.159999966621399,-0.7699999809265137 q3.2200000286102295,0.9100000262260437 6.429999828338623,1.9300000667572021 l0.3800000250339508,0 c2.509999990463257,0.6700000166893005 1.7999999523162842,-3.240000009536743 5,-1.850000023841858 c6.559999942779541,3.6100001335144043 10.3100004196167,4.639999866485596 11.430000305175781,3.25 s3.5900001525878906,-1.2699999809265137 5.170000076293945,-0.4099999964237213 s8.1899995803833,6 9.600000381469727,6.489999771118164 c1.190000057220459,1 5.300000190734863,1.2400000095367432 6.880000114440918,1.9000000953674316 c1.7400000095367432,0.17000001668930054 9.920000076293945,9.40999984741211 11.720000267028809,9.3100004196167 c6.179999828338623,-0.49000000953674316 6.650000095367432,2.1600000858306885 6.900000095367432,1.7100000381469727 s8.229999542236328,9.25 10,10.670000076293945 c2.7300000190734863,2.299999952316284 4.050000190734863,2.1600000858306885 7.779999732971191,4.079999923706055 s6.179999828338623,7.070000171661377 8.15999984741211,8.579999923706055 s0.49000000953674316,3.809999942779541 8.5,8.09000015258789 s11.380000114440918,14.479999542236328 15.109999656677246,16.579999923706055 s8.220000267028809,7.070000171661377 9.3100004196167,10.050000190734863 a45.130001068115234,45.130001068115234 0 0 0 4.28000020980835,6.650000095367432 c0.8300000429153442,1.1299999952316284 1.7100000381469727,2.3399999141693115 2.630000114440918,3.559999942779541 a0.64000004529953,0.64000004529953 0 0 1 0.10000000149011612,0.12999999523162842 c4.190000057220459,5.529999732971191 9,11.319999694824219 10.649999618530273,12.3100004196167 a9.430000305175781,9.430000305175781 0 0 1 3.2899999618530273,4.190000057220459 a1.2400000095367432,1.2400000095367432 0 0 1 0.10000000149011612,0.17000001668930054 a7.309999942779541,7.309999942779541 0 0 1 3.450000047683716,2.869999885559082 c1,1.7400000095367432 3.2899999618530273,10.130000114440918 4.420000076293945,11.479999542236328 c0.3800000250339508,1.559999942779541 4.940000057220459,4.71999979019165 6.090000152587891,6.329999923706055 c1.8799999952316284,1.3799999952316284 1.7699999809265137,13.739999771118164 4,15 c7.75,4.150000095367432 5.519999980926514,6.329999923706055 6.289999961853027,6.199999809265137 s0,12.399999618530273 0.5699999928474426,14.690000534057617 c0.7899999618530273,3.5900001525878906 2.490000009536743,4.460000038146973 4.840000152587891,8.5 s-0.1599999964237213,9.399999618530273 0.5699999928474426,11.890000343322754 s-3.4200000762939453,3 1.4700000286102295,11.789999961853027 c3.640000104904175,6.519999980926514 0.8899999856948853,13.4399995803833 0.10999999940395355,18.280000686645508 a6.75,6.75 0 0 0 0.24000000953674316,4.190000057220459 s0,0 0,0 c2.1500000953674316,4.179999828338623 2.2100000381469727,10.890000343322754 0.36000001430511475,13.739999771118164 a0.800000011920929,0.800000011920929 0 0 0 -0.08000000566244125,0.1599999964237213 a264.1199951171875,264.1199951171875 0 0 1 -2.4600000381469727,34.279998779296875 q-1.1200000047683716,8.239999771118164 -2.7899999618530273,16.59000015258789 c-0.18000000715255737,0.8400000333786011 -0.36000001430511475,1.6700000762939453 -0.5299999713897705,2.509999990463257 a23.850000381469727,23.850000381469727 0 0 0 -2.109999895095825,8.869999885559082 c-0.18000000715255737,2.2799999713897705 -0.27000001072883606,4.599999904632568 -0.5900000333786011,6.940000057220459 c-4.210000038146973,33 9.539999961853027,60.880001068115234 23.5,88.87999725341797 c4.849999904632568,9.8100004196167 9.720000267028809,19.65999984741211 14.390000343322754,29.540000915527344 a50.56999969482422,50.56999969482422 0 0 1 3.4100000858306885,9.479999542236328 c0.800000011920929,3.1500000953674316 3.1600000858306885,7.690000057220459 0,9.279999732971191 c-3.75,1.9200000762939453 -5,-3.309999942779541 -7,-5.659999847412109 c-2.7200000286102295,-3.2899999618530273 -5,-6.869999885559082 -9.800000190734863,-7.199999809265137 C588.9335632324219,470.3398971557617 586.1135559082031,470.76988983154297 584.6335754394531,473.64989471435547 z" id="svg_8" class="" transform=""/><path d="M488.2435607910156,154.5499038696289 q-1.159999966621399,-2.369999885559082 -2.4000000953674316,-4.710000038146973 a8.170000076293945,8.170000076293945 0 0 1 1.5799999237060547,1.2799999713897705 A7.570000171661377,7.570000171661377 0 0 0 488.2435607910156,154.5499038696289 z" id="svg_9" class="" transform=""/><path d="M491.2235412597656,160.66991424560547 c-0.5400000214576721,-1.1700000762939453 -1.1100000143051147,-2.3399999141693115 -1.690000057220459,-3.509999990463257 c0.33000001311302185,0.6100000143051147 0.699999988079071,1.25 1.1299999952316284,1.940000057220459 C490.8435363769531,159.63990020751953 491.0335388183594,160.16991424560547 491.2235412597656,160.66991424560547 z" id="svg_10" class="" transform=""/><path d="M320.9435729980469,67.71990203857422 c-28.809999465942383,0.550000011920929 -58.27000045776367,7.730000019073486 -88.0999984741211,21.450000762939453 a212.44000244140625,212.44000244140625 0 0 0 -46.43000030517578,28.809999465942383 L145.17355346679688,164.69991302490234 c-19.31999969482422,30.229999542236328 -31.31999969482422,66 -37.79999923706055,105.87000274658203 c-8.1899995803833,-9.199999809265137 -6.769999980926514,-16.68000030517578 -6.269999980926514,-23.579999923706055 a240.77999877929688,240.77999877929688 0 0 1 8.239999771118164,-47.709999084472656 s0,-0.06000000238418579 0,-0.09000000357627869 a38.88999938964844,38.88999938964844 0 0 0 1.2000000476837158,-6.869999885559082 c0.7199999690055847,-3.109999895095825 -3.75,-4.130000114440918 -2.2200000286102295,-7.800000190734863 c4,-7.21999979019165 5.150000095367432,-11.859999656677246 3.549999952316284,-14.100000381469727 a7.639999866485596,7.639999866485596 0 0 1 -0.5699999928474426,-7.360000133514404 c0.9500000476837158,-1.7400000095367432 6.769999980926514,-8.220000267028809 7.300000190734863,-9.899999618530273 c1.1100000143051147,-1.159999966621399 1.3300000429153442,-6.690000057220459 2.059999942779541,-8.539999961853027 c0.1599999964237213,-2.319999933242798 10.640000343322754,-8.880000114440918 10.5,-11.40999984741211 c-0.6700000166893005,-8.770000457763672 2.369999885559082,-8.0600004196167 1.850000023841858,-8.630000114440918 s10.479999542236328,-6.630000114440918 12.079999923706055,-8.369999885559082 c2.5999999046325684,-2.5999999046325684 2.4200000762939453,-4.5 4.559999942779541,-8.65999984741211 s8,-4.909999847412109 9.720000267028809,-6.869999885559082 s4.360000133514404,1.2799999713897705 9.149999618530273,-7.579999923706055 s16.440000534057617,-8.319999694824219 18.790000915527344,-12.390000343322754 s8,-7.71999979019165 11.390000343322754,-7.690000057220459 c1.8799999952316284,0 12.539999961853027,-6.71999979019165 15.170000076293945,-6.059999942779541 h0 c2.059999942779541,0.550000011920929 6.880000114440918,-3.069999933242798 9.260000228881836,-5.329999923706055 h0 c2.5,-1.3700000047683716 5,-2.680000066757202 7.579999923706055,-4 q6.949999809265137,-3.4700000286102295 14.09000015258789,-6.409999847412109 A192.39999389648438,192.39999389648438 0 0 1 320.9435729980469,67.71990203857422 z" id="svg_11" class="" transform=""/></g></svg>